<svg width="26" height="26" viewBox="0 0 26 26" fill="none" xmlns="http://www.w3.org/2000/svg">
<path d="M22.4047 19.8778C21.9521 19.2722 21.2826 18.8066 20.3109 18.9584C18.065 19.3094 19.2581 17.5547 17.6439 18.2566C16.3525 18.8181 15.4213 20.4089 15.1172 21.1342C15.0236 20.6897 14.668 19.7164 13.9943 19.3795C13.152 18.9584 12.8713 19.6603 12.38 18.9584C11.8887 18.2566 11.8887 17.274 11.4676 16.2914C11.0465 15.3088 12.8713 13.8349 13.9943 14.3964C15.1172 14.9579 15.8191 14.607 16.3805 15.4492C16.942 16.2914 17.6439 17.3442 17.6439 14.3964C17.6439 11.4486 19.0476 10.1151 19.6792 10.1853C20.3109 10.2555 22.2761 9.55349 21.9252 8.85179C21.5742 8.15009 19.6792 7.79901 19.6792 7.16735C19.6792 6.53568 20.5215 5.20233 19.6792 4.57067C18.837 3.939 16.7315 2.67567 15.1172 2.81604C13.503 2.95641 13.0056 3.58849 13.0056 4.14997C13.0056 4.71145 15.1172 5.76439 13.9943 6.46587C12.8713 7.16735 9.22167 8.28994 9.22167 7.16735C9.22167 6.04475 9.01112 3.65846 9.71297 3.65846C10.4148 3.65846 10.6254 1.90384 11.0465 1.97402C11.4676 2.04421 13.2222 1.27262 13.9943 1.62332C14.2309 1.73084 15.0086 1.52834 15.8843 1.16344M22.4047 19.8778C23.8786 17.8847 24.75 15.4191 24.75 12.75C24.75 7.20694 20.9917 2.54168 15.8843 1.16344M22.4047 19.8778C20.2189 22.8335 16.7083 24.75 12.75 24.75C12.0453 24.75 11.3548 24.6893 10.6834 24.5727M10.6834 24.5727C10.7741 24.0506 10.8928 23.6192 11.0465 23.3801C11.6781 22.3975 13.7837 23.0994 13.9943 22.6081C14.2048 22.1168 13.2924 21.5553 12.38 21.1342C11.4676 20.7131 9.92352 20.292 9.71297 18.2566C9.50241 16.2212 8.51982 16.5721 8.30926 16.2914C8.09871 16.0107 5.64223 15.2386 4.86998 13.8349C4.09773 12.4312 4.8702 10.0449 4.86998 9.41327C4.86983 8.96675 2.93372 8.48743 1.62768 8.23668M10.6834 24.5727C5.04078 23.5933 0.75 18.6727 0.75 12.75C0.75 11.1536 1.06174 9.62994 1.62768 8.23668M1.62768 8.23668C3.41115 3.84599 7.71902 0.75 12.75 0.75C13.8344 0.75 14.8851 0.893826 15.8843 1.16344" stroke="#FF70D9" stroke-width="1.5" stroke-linecap="square" stroke-linejoin="round"/>
</svg>
